<?xml version="1.0" encoding="UTF-8"?><svg xmlns="http://www.w3.org/2000/svg" viewBox="0 0 630.57 195.44"><defs><style>.c{fill:#dcbcfd;}.d{stroke-width:10px;}.d,.e{fill:none;stroke:#dcbcfd;stroke-miterlimit:10;}.f{fill:#36244d;font-family:DarkerGrotesque-SemiBold, Darker Grotesque;font-size:106.76px;}.g{letter-spacing:0em;}.e{stroke-width:7px;}</style></defs><g id="a"><path class="d" d="M399.51,190.44H55.08c-27.66,0-50.08-20.36-50.08-45.47V79.91c0-25.11,22.42-45.47,50.08-45.47H450"/><text class="f" transform="translate(47.46 138.35) scale(.91 1)"><tspan x="0" y="0">SubScrip</tspan><tspan class="g" x="370.99" y="0">t</tspan><tspan x="400.99" y="0">o</tspan></text><path class="c" d="M449.61,39.82c6.43,0,6.45-10,0-10s-6.45,10,0,10h0Z"/><path class="c" d="M399.14,195.08c6.43,0,6.45-10,0-10s-6.45,10,0,10h0Z"/><g><path class="c" d="M547.06,58.39c15.08-.46,24.35,13.92,18.77,27.66-2.42,5.96,7.25,8.55,9.64,2.66,8.03-19.76-7.36-40.97-28.41-40.32-6.42,.2-6.45,10.2,0,10h0Z"/><path class="c" d="M558.63,36.42c24.94-1.04,41.38,23.67,31.8,46.44-2.49,5.92,7.18,8.51,9.64,2.66,12.08-28.72-10.59-60.39-41.44-59.1-6.41,.27-6.45,10.27,0,10h0Z"/><path class="c" d="M567.54,10.07c16.81-.81,33.76,6.61,43.75,20.38,10.16,14.01,12.27,33.32,5.46,49.23-2.51,5.85,6.1,10.95,8.63,5.05,8.22-19.17,6.87-42.11-5.46-59.32S587.98-.91,567.54,.07c-6.41,.31-6.44,10.31,0,10h0Z"/><path class="c" d="M485.93,101.27v28.54c0,3.38,.37,6.99,0,10.35-.95,8.72-5.41,15.89-12.82,20.41-3.06,1.86-1.94,7.15,1.89,6.99,34.48-1.45,68.99-1.91,103.5-1.4,4.12,.06,5.23-6.56,1-7.37-4.82-.92-8.61-3.13-11.43-7.2-1.95-2.82-4.57-7.33-5.22-10.62s0-7.39,0-10.74v-29.05c0-4.83-7.5-4.83-7.5,0v33.21c0,5.43,.35,8.69,2.57,13.9,3.78,8.86,9.75,15.85,19.59,17.72l1-7.37c-34.51-.51-69.02-.04-103.5,1.4l1.89,6.99c12.48-7.61,16.54-19.98,16.54-33.89v-31.89c0-4.83-7.5-4.83-7.5,0h0Z"/><path class="e" d="M537.5,165.2c0,5.8-4.7,10.5-10.5,10.5s-10.5-4.7-10.5-10.5"/><path class="c" d="M532.42,78.55c3.28,2.07,6.85,3.98,9.58,6.79,3.19,3.29,4.73,7.73,6.09,12.02,.97,3.06,5.8,1.75,4.82-1.33-1.55-4.89-3.38-9.81-6.86-13.68-3.07-3.41-7.26-5.7-11.1-8.12-2.73-1.72-5.24,2.61-2.52,4.32h0Z"/><path class="e" d="M489.5,102.2c0-19.61,15.56-35.5,34.75-35.5s34.75,15.89,34.75,35.5"/></g></g><g id="b"/></svg>